# xmcd
#
# Track frame offsets:
#   150
#   23222
#   23712
#   37400
#   65430
#   66810
#   67250
#   83845
#   85200
#   98975
#   119142
#   119602
#   142622
#   163600
#   165222
#   183970
#   204977
#   206467
#   229842
#   231372
#
# Disc length: 3122 seconds
#
# Revision: 5
# Processed by: cddbd v1.5.2PL0 Copyright (c) Steve Scherf et al.
# Submitted via: Media_Universe 3.0
#
DISCID=180c3014
DTITLE=Various Artist - When We Were Kings 
DYEAR=1997
DGENRE=Soundtrack
TTITLE0=Fugees feat. A Tribe Called Quest, Busta Rhymes and Forte - Rumble in the Jungle
TTITLE1=Drew "Bundini" Brown
TTITLE2=Bill Withers - Ain't No Sunshine-You (Medley)
TTITLE3=B.B. King - Sweet Sixteen
TTITLE4=African Girls Chant
TTITLE5=Ali - When I Get to Africa
TTITLE6=James Brown - The Payback
TTITLE7=Mobutu Chant
TTITLE8=Spinners - I'll Be Around
TTITLE9=Jazz Crusaders - Put It Where You Want It
TTITLE10=Ali - Wait Till I Kick Foreman's Behind
TTITLE11=B.B. King - I Got Some Help I Don't Need
TTITLE12=James Brown - Gonna Have A Funky Good Time
TTITLE13=Ali - Mr. Tooth Decay
TTITLE14=Spinners - I'm Coming Home
TTITLE15=Brian McKnight and Diana King - When We Were Kings
TTITLE16=Drew "Bundini" Brown
TTITLE17=Zelma Davis - I'm Calling (Say It Loud)
TTITLE18=Ali - You Out Sucker
TTITLE19=Chant
EXTD=
EXTT0=
EXTT1=
EXTT2=
EXTT3=
EXTT4=
EXTT5=
EXTT6=
EXTT7=
EXTT8=
EXTT9=
EXTT10=
EXTT11=
EXTT12=
EXTT13=
EXTT14=
EXTT15=
EXTT16=
EXTT17=
EXTT18=
EXTT19=
PLAYORDER=
